# Blender 3.4.1
# www.blender.org
mtllib barrier.mtl
o Cube
v -3.000000 3.000000 -0.200000
v -3.000000 0.200000 -0.500000
v 3.000000 3.000000 -0.200000
v 3.000000 0.200000 -0.500000
v -3.000000 3.000000 0.200000
v -3.000000 0.200000 0.500000
v 3.000000 3.000000 0.200000
v 3.000000 0.200000 0.500000
v -3.000000 1.000000 -0.300000
v 3.000000 1.000000 0.300000
v 3.000000 1.000000 -0.300000
v -3.000000 1.000000 0.300000
v -3.000000 0.000000 -0.500000
v 3.000000 0.000000 -0.500000
v -3.000000 0.000000 0.500000
v 3.000000 0.000000 0.500000
vn -0.0000 1.0000 -0.0000
vn 1.0000 -0.0000 -0.0000
vn -0.0000 0.0499 0.9988
vn -0.0000 -0.0000 1.0000
vn -0.0000 0.0499 -0.9988
vn -1.0000 -0.0000 -0.0000
vn -0.0000 0.2425 -0.9701
vn -0.0000 0.2425 0.9701
vn -0.0000 -1.0000 -0.0000
vn -0.0000 -0.0000 -1.0000
vt 0.625000 0.500000
vt 0.375000 0.500000
vt 0.625000 0.750000
vt 0.375000 0.750000
vt 0.875000 0.500000
vt 0.625000 0.250000
vt 0.375000 0.250000
vt 0.875000 0.750000
vt 0.625000 1.000000
vt 0.625000 0.000000
vt 0.375000 0.000000
vt 0.375000 1.000000
vt 0.450000 0.500000
vt 0.450000 0.000000
vt 0.450000 1.000000
vt 0.450000 0.750000
vt 0.450000 0.250000
vt 0.375000 0.500000
vt 0.375000 0.750000
vt 0.125000 0.500000
vt 0.375000 0.250000
vt 0.375000 0.000000
vt 0.125000 0.750000
vt 0.375000 1.000000
s 0
usemtl Material
f 1/1/1 5/5/1 7/8/1 3/3/1
f 11/16/2 3/3/2 7/9/2 10/15/2
f 10/14/3 7/10/3 5/6/3 12/17/3
f 8/11/4 6/7/4 15/21/4 16/22/4
f 9/13/5 1/1/5 3/3/5 11/16/5
f 12/17/6 5/6/6 1/1/6 9/13/6
f 6/7/6 12/17/6 9/13/6 2/2/6
f 2/2/7 9/13/7 11/16/7 4/4/7
f 8/11/8 10/14/8 12/17/8 6/7/8
f 4/4/2 11/16/2 10/15/2 8/12/2
f 15/20/9 13/18/9 14/19/9 16/23/9
f 2/2/10 4/4/10 14/19/10 13/18/10
f 6/7/6 2/2/6 13/18/6 15/21/6
f 4/4/2 8/12/2 16/24/2 14/19/2
