# Blender 3.5.0 Alpha
# www.blender.org
o Cylinder
v 0.000000 2.450000 -0.210000
v 0.000000 2.450000 0.210000
v -0.700000 2.800000 -0.210000
v -0.700000 2.800000 0.210000
v 0.000000 3.150000 -0.210000
v 0.000000 3.150000 0.210000
v 0.700000 2.800000 -0.210000
v 0.700000 2.800000 0.210000
v 1.280000 0.820000 -0.480000
v 1.280000 3.380000 -0.480000
v 1.280000 0.820000 0.480000
v 1.280000 3.380000 0.480000
v -1.280000 0.820000 -0.480000
v -1.280000 3.380000 -0.480000
v -1.280000 0.820000 0.480000
v -1.280000 3.380000 0.480000
v 1.600000 3.700000 0.480000
v 1.600000 0.500000 0.480000
v -1.600000 0.500000 0.480000
v -1.600000 3.700000 0.480000
v 1.600000 3.700000 -0.480000
v 1.600000 0.500000 -0.480000
v -1.600000 0.500000 -0.480000
v -1.600000 3.700000 -0.480000
v -0.610614 1.631994 -0.240000
v -0.610614 2.111994 -0.240000
v -0.610614 1.631994 0.240000
v -0.610614 2.111994 0.240000
v -1.090614 1.631994 -0.240000
v -1.090614 2.111994 -0.240000
v -1.090614 1.631994 0.240000
v -1.090614 2.111994 0.240000
v -0.050614 1.631994 -0.240000
v -0.050614 2.111994 -0.240000
v -0.050614 1.631994 0.240000
v -0.050614 2.111994 0.240000
v -0.530614 1.631994 -0.240000
v -0.530614 2.111994 -0.240000
v -0.530614 1.631994 0.240000
v -0.530614 2.111994 0.240000
v 0.509386 1.631994 -0.240000
v 0.509386 2.111994 -0.240000
v 0.509386 1.631994 0.240000
v 0.509386 2.111994 0.240000
v 0.029386 1.631994 -0.240000
v 0.029386 2.111994 -0.240000
v 0.029386 1.631994 0.240000
v 0.029386 2.111994 0.240000
v 1.069386 1.631994 -0.240000
v 1.069386 2.111994 -0.240000
v 1.069386 1.631994 0.240000
v 1.069386 2.111994 0.240000
v 0.589386 1.631994 -0.240000
v 0.589386 2.111994 -0.240000
v 0.589386 1.631994 0.240000
v 0.589386 2.111994 0.240000
v -0.610614 1.131994 -0.240000
v -0.610614 1.611994 -0.240000
v -0.610614 1.131994 0.240000
v -0.610614 1.611994 0.240000
v -1.090614 1.131994 -0.240000
v -1.090614 1.611994 -0.240000
v -1.090614 1.131994 0.240000
v -1.090614 1.611994 0.240000
v -0.050614 1.131994 -0.240000
v -0.050614 1.611994 -0.240000
v -0.050614 1.131994 0.240000
v -0.050614 1.611994 0.240000
v -0.530614 1.131994 -0.240000
v -0.530614 1.611994 -0.240000
v -0.530614 1.131994 0.240000
v -0.530614 1.611994 0.240000
v 0.509386 1.131994 -0.240000
v 0.509386 1.611994 -0.240000
v 0.509386 1.131994 0.240000
v 0.509386 1.611994 0.240000
v 0.029386 1.131994 -0.240000
v 0.029386 1.611994 -0.240000
v 0.029386 1.131994 0.240000
v 0.029386 1.611994 0.240000
v 1.069386 1.131994 -0.240000
v 1.069386 1.611994 -0.240000
v 1.069386 1.131994 0.240000
v 1.069386 1.611994 0.240000
v 0.589386 1.131994 -0.240000
v 0.589386 1.611994 -0.240000
v 0.589386 1.131994 0.240000
v 0.589386 1.611994 0.240000
vn -0.4472 -0.8944 -0.0000
vn -0.4472 0.8944 -0.0000
vn -0.0000 -0.0000 1.0000
vn 0.4472 0.8944 -0.0000
vn 0.4472 -0.8944 -0.0000
vn -0.0000 -0.0000 -1.0000
vn -0.0000 -1.0000 -0.0000
vn -1.0000 -0.0000 -0.0000
vn -0.0000 1.0000 -0.0000
vn 1.0000 -0.0000 -0.0000
vt 1.000000 0.500000
vt 0.000000 0.500000
vt 0.750000 0.490000
vt 1.000000 1.000000
vt 0.250000 0.490000
vt 0.000000 1.000000
vt 0.750000 0.500000
vt 0.990000 0.250000
vt 0.750000 1.000000
vt 0.490000 0.250000
vt 0.500000 0.500000
vt 0.750000 0.010000
vt 0.250000 0.010000
vt 0.500000 1.000000
vt 0.250000 0.500000
vt 0.510000 0.250000
vt 0.010000 0.250000
vt 0.250000 1.000000
vt 0.400000 0.275000
vt 0.600000 0.275000
vt 0.400000 0.275000
vt 0.600000 0.275000
vt 0.400000 0.475000
vt 0.600000 0.475000
vt 0.400000 0.475000
vt 0.600000 0.475000
vt 0.875000 0.500000
vt 0.625000 0.250000
vt 0.125000 0.500000
vt 0.375000 0.250000
vt 0.375000 0.500000
vt 0.625000 0.500000
vt 0.875000 0.500000
vt 0.625000 0.250000
vt 0.125000 0.500000
vt 0.375000 0.250000
vt 0.375000 0.500000
vt 0.625000 0.500000
vt 0.375000 0.000000
vt 0.375000 1.000000
vt 0.125000 0.750000
vt 0.625000 0.000000
vt 0.625000 1.000000
vt 0.875000 0.750000
vt 0.375000 0.250000
vt 0.125000 0.500000
vt 0.625000 0.250000
vt 0.875000 0.500000
vt 0.375000 0.750000
vt 0.625000 0.750000
vt 0.375000 0.500000
vt 0.625000 0.500000
vt 0.375000 0.000000
vt 0.375000 1.000000
vt 0.125000 0.750000
vt 0.625000 0.000000
vt 0.625000 1.000000
vt 0.875000 0.750000
vt 0.375000 0.250000
vt 0.125000 0.500000
vt 0.625000 0.250000
vt 0.875000 0.500000
vt 0.375000 0.750000
vt 0.625000 0.750000
vt 0.375000 0.500000
vt 0.625000 0.500000
vt 0.375000 0.000000
vt 0.375000 1.000000
vt 0.125000 0.750000
vt 0.625000 0.000000
vt 0.625000 1.000000
vt 0.875000 0.750000
vt 0.375000 0.250000
vt 0.125000 0.500000
vt 0.625000 0.250000
vt 0.875000 0.500000
vt 0.375000 0.750000
vt 0.625000 0.750000
vt 0.375000 0.500000
vt 0.625000 0.500000
vt 0.375000 0.000000
vt 0.375000 1.000000
vt 0.125000 0.750000
vt 0.625000 0.000000
vt 0.625000 1.000000
vt 0.875000 0.750000
vt 0.375000 0.250000
vt 0.125000 0.500000
vt 0.625000 0.250000
vt 0.875000 0.500000
vt 0.375000 0.750000
vt 0.625000 0.750000
vt 0.375000 0.500000
vt 0.625000 0.500000
vt 0.375000 0.000000
vt 0.375000 1.000000
vt 0.125000 0.750000
vt 0.625000 0.000000
vt 0.625000 1.000000
vt 0.875000 0.750000
vt 0.375000 0.250000
vt 0.125000 0.500000
vt 0.625000 0.250000
vt 0.875000 0.500000
vt 0.375000 0.750000
vt 0.625000 0.750000
vt 0.375000 0.500000
vt 0.625000 0.500000
vt 0.375000 0.000000
vt 0.375000 1.000000
vt 0.125000 0.750000
vt 0.625000 0.000000
vt 0.625000 1.000000
vt 0.875000 0.750000
vt 0.375000 0.250000
vt 0.125000 0.500000
vt 0.625000 0.250000
vt 0.875000 0.500000
vt 0.375000 0.750000
vt 0.625000 0.750000
vt 0.375000 0.500000
vt 0.625000 0.500000
vt 0.375000 0.000000
vt 0.375000 1.000000
vt 0.125000 0.750000
vt 0.625000 0.000000
vt 0.625000 1.000000
vt 0.875000 0.750000
vt 0.375000 0.250000
vt 0.125000 0.500000
vt 0.625000 0.250000
vt 0.875000 0.500000
vt 0.375000 0.750000
vt 0.625000 0.750000
vt 0.375000 0.500000
vt 0.625000 0.500000
vt 0.375000 0.000000
vt 0.375000 1.000000
vt 0.125000 0.750000
vt 0.625000 0.000000
vt 0.625000 1.000000
vt 0.875000 0.750000
vt 0.375000 0.250000
vt 0.125000 0.500000
vt 0.625000 0.250000
vt 0.875000 0.500000
vt 0.375000 0.750000
vt 0.625000 0.750000
vt 0.375000 0.500000
vt 0.625000 0.500000
s 0
f 1/1/1 2/4/1 4/9/1 3/7/1
f 3/7/2 4/9/2 6/14/2 5/11/2
f 4/10/3 2/5/3 8/17/3 6/13/3
f 5/11/4 6/14/4 8/18/4 7/15/4
f 7/15/5 8/18/5 2/6/5 1/2/5
f 1/3/6 3/8/6 5/12/6 7/16/6
f 22/35/7 18/29/7 19/31/7 23/37/7
f 14/24/6 24/38/6 21/34/6 10/20/6
f 10/20/6 21/34/6 22/36/6 9/19/6
f 9/19/6 22/36/6 23/37/6 13/23/6
f 12/22/3 11/21/3 18/30/3 17/28/3
f 11/21/3 15/25/3 19/31/3 18/30/3
f 16/26/3 12/22/3 17/28/3 20/32/3
f 15/25/3 16/26/3 20/32/3 19/31/3
f 13/23/6 23/37/6 24/38/6 14/24/6
f 23/37/8 19/31/8 20/32/8 24/38/8
f 24/38/9 20/32/9 17/27/9 21/33/9
f 18/30/10 22/36/10 21/34/10 17/28/10
f 15/25/10 13/23/10 14/24/10 16/26/10
f 9/19/9 13/23/9 15/25/9 11/21/9
f 9/19/8 11/21/8 12/22/8 10/20/8
f 16/26/7 14/24/7 10/20/7 12/22/7
f 25/39/10 26/42/10 28/47/10 27/45/10
f 27/45/3 28/47/3 32/52/3 31/51/3
f 31/51/8 32/52/8 30/50/8 29/49/8
f 29/49/6 30/50/6 26/43/6 25/40/6
f 27/46/7 31/51/7 29/49/7 25/41/7
f 32/52/9 28/48/9 26/44/9 30/50/9
f 33/53/10 34/56/10 36/61/10 35/59/10
f 35/59/3 36/61/3 40/66/3 39/65/3
f 39/65/8 40/66/8 38/64/8 37/63/8
f 37/63/6 38/64/6 34/57/6 33/54/6
f 35/60/7 39/65/7 37/63/7 33/55/7
f 40/66/9 36/62/9 34/58/9 38/64/9
f 41/67/10 42/70/10 44/75/10 43/73/10
f 43/73/3 44/75/3 48/80/3 47/79/3
f 47/79/8 48/80/8 46/78/8 45/77/8
f 45/77/6 46/78/6 42/71/6 41/68/6
f 43/74/7 47/79/7 45/77/7 41/69/7
f 48/80/9 44/76/9 42/72/9 46/78/9
f 49/81/10 50/84/10 52/89/10 51/87/10
f 51/87/3 52/89/3 56/94/3 55/93/3
f 55/93/8 56/94/8 54/92/8 53/91/8
f 53/91/6 54/92/6 50/85/6 49/82/6
f 51/88/7 55/93/7 53/91/7 49/83/7
f 56/94/9 52/90/9 50/86/9 54/92/9
f 57/95/10 58/98/10 60/103/10 59/101/10
f 59/101/3 60/103/3 64/108/3 63/107/3
f 63/107/8 64/108/8 62/106/8 61/105/8
f 61/105/6 62/106/6 58/99/6 57/96/6
f 59/102/7 63/107/7 61/105/7 57/97/7
f 64/108/9 60/104/9 58/100/9 62/106/9
f 65/109/10 66/112/10 68/117/10 67/115/10
f 67/115/3 68/117/3 72/122/3 71/121/3
f 71/121/8 72/122/8 70/120/8 69/119/8
f 69/119/6 70/120/6 66/113/6 65/110/6
f 67/116/7 71/121/7 69/119/7 65/111/7
f 72/122/9 68/118/9 66/114/9 70/120/9
f 73/123/10 74/126/10 76/131/10 75/129/10
f 75/129/3 76/131/3 80/136/3 79/135/3
f 79/135/8 80/136/8 78/134/8 77/133/8
f 77/133/6 78/134/6 74/127/6 73/124/6
f 75/130/7 79/135/7 77/133/7 73/125/7
f 80/136/9 76/132/9 74/128/9 78/134/9
f 81/137/10 82/140/10 84/145/10 83/143/10
f 83/143/3 84/145/3 88/150/3 87/149/3
f 87/149/8 88/150/8 86/148/8 85/147/8
f 85/147/6 86/148/6 82/141/6 81/138/6
f 83/144/7 87/149/7 85/147/7 81/139/7
f 88/150/9 84/146/9 82/142/9 86/148/9
